ply
format ascii 1.0
comment VCGLIB generated
element vertex 162
property float x
property float y
property float z
property float nx
property float ny
property float nz
element face 320
property list uchar int vertex_indices
end_header
1.314328 4.755283 0.8122993 6.880407 23.76977 3.557798 
2.628655 4.253254 0 12.63704 21.57093 0 
1.314328 4.755283 -0.8122993 6.880406 23.76978 -3.557799 
0 5 0 -5.081976e-08 25 0 
2.5 4.045085 1.545085 12.5 20.22543 7.725424 
2.5 4.045085 -1.545085 12.5 20.22543 -7.725424 
0 4.809691 -1.366333 -2.675654e-08 23.95655 -7.147282 
1.299459 4.313342 -2.169443 6.196006 21.58989 -10.97662 
0 4.253254 -2.628656 0 21.26627 -13.14328 
1.299459 4.313342 2.169443 6.196006 21.58989 10.97663 
0 4.809691 1.366333 -2.675654e-08 23.95655 7.147282 
0 4.253254 2.628656 0 21.26627 13.14328 
3.510232 3.468902 -0.8031101 17.76055 17.17263 -3.829341 
3.510232 3.468902 0.8031101 17.76055 17.17263 3.829341 
4.253254 2.628656 0 21.26627 13.14328 0 
-1.314328 4.755283 -0.8122993 -6.880407 23.76977 -3.557798 
-2.628655 4.253254 0 -12.63704 21.57093 0 
-1.314328 4.755283 0.8122993 -6.880406 23.76978 3.557799 
-2.5 4.045085 -1.545085 -12.5 20.22543 -7.725424 
-2.5 4.045085 1.545085 -12.5 20.22543 7.725424 
-1.299459 4.313342 2.169443 -6.196006 21.58989 10.97662 
-1.299459 4.313342 -2.169443 -6.196006 21.58989 -10.97663 
-3.510232 3.468902 0.8031101 -17.76055 17.17263 3.829341 
-3.510232 3.468902 -0.8031101 -17.76055 17.17263 -3.829341 
-4.253254 2.628656 0 -21.26627 13.14328 0 
1.314328 -4.755283 -0.8122993 6.880407 -23.76977 -3.557798 
2.628655 -4.253254 0 12.63704 -21.57093 0 
1.314328 -4.755283 0.8122993 6.880406 -23.76978 3.557799 
0 -5 0 -5.081976e-08 -25 0 
2.5 -4.045085 -1.545085 12.5 -20.22543 -7.725424 
2.5 -4.045085 1.545085 12.5 -20.22543 7.725424 
0 -4.809691 1.366333 -2.675654e-08 -23.95655 7.147282 
1.299459 -4.313342 2.169443 6.196006 -21.58989 10.97662 
0 -4.253254 2.628656 0 -21.26627 13.14328 
1.299459 -4.313342 -2.169443 6.196006 -21.58989 -10.97663 
0 -4.809691 -1.366333 -2.675654e-08 -23.95655 -7.147282 
0 -4.253254 -2.628656 0 -21.26627 -13.14328 
3.510232 -3.468902 0.8031101 17.76055 -17.17263 3.829341 
3.510232 -3.468902 -0.8031101 17.76055 -17.17263 -3.829341 
4.253254 -2.628656 0 21.26627 -13.14328 0 
-1.314328 -4.755283 0.8122993 -6.880407 -23.76977 3.557798 
-2.628655 -4.253254 0 -12.63704 -21.57093 0 
-1.314328 -4.755283 -0.8122993 -6.880406 -23.76978 -3.557799 
-2.5 -4.045085 1.545085 -12.5 -20.22543 7.725424 
-2.5 -4.045085 -1.545085 -12.5 -20.22543 -7.725424 
-1.299459 -4.313342 -2.169443 -6.196006 -21.58989 -10.97662 
-1.299459 -4.313342 2.169443 -6.196006 -21.58989 10.97663 
-3.510232 -3.468902 -0.8031101 -17.76055 -17.17263 -3.829341 
-3.510232 -3.468902 0.8031101 -17.76055 -17.17263 3.829341 
-4.253254 -2.628656 0 -21.26627 -13.14328 0 
4.755283 -0.8122993 -1.314328 23.76977 -3.557798 -6.880407 
4.253254 0 -2.628655 21.57093 0 -12.63704 
4.755283 0.8122993 -1.314328 23.76978 3.557799 -6.880406 
5 0 0 25 0 5.081976e-08 
4.045085 -1.545085 -2.5 20.22543 -7.725424 -12.5 
4.045085 1.545085 -2.5 20.22543 7.725425 -12.5 
4.809691 1.366333 0 23.95655 7.147282 2.675654e-08 
4.313342 2.169443 -1.299459 21.58989 10.97662 -6.196006 
4.313342 -2.169443 -1.299459 21.58989 -10.97663 -6.196006 
4.809691 -1.366333 0 23.95655 -7.147282 2.675654e-08 
3.468902 0.8031101 -3.510232 17.17263 3.829341 -17.76055 
3.468902 -0.8031101 -3.510232 17.17263 -3.829341 -17.76055 
2.628656 0 -4.253254 13.14328 0 -21.26627 
4.755283 0.8122993 1.314328 23.76977 3.557798 6.880407 
4.253254 0 2.628655 21.57093 0 12.63704 
4.755283 -0.8122993 1.314328 23.76978 -3.557799 6.880406 
4.045085 1.545085 2.5 20.22543 7.725424 12.5 
4.045085 -1.545085 2.5 20.22543 -7.725425 12.5 
4.313342 -2.169443 1.299459 21.58989 -10.97662 6.196006 
4.313342 2.169443 1.299459 21.58989 10.97663 6.196006 
3.468902 -0.8031101 3.510232 17.17263 -3.829341 17.76055 
3.468902 0.8031101 3.510232 17.17263 3.829341 17.76055 
2.628656 0 4.253254 13.14328 0 21.26627 
-4.755283 -0.8122993 1.314328 -23.76977 -3.557798 6.880407 
-4.253254 0 2.628655 -21.57093 0 12.63704 
-4.755283 0.8122993 1.314328 -23.76978 3.557799 6.880406 
-5 0 0 -25 0 -5.081976e-08 
-4.045085 -1.545085 2.5 -20.22543 -7.725424 12.5 
-4.045085 1.545085 2.5 -20.22543 7.725425 12.5 
-4.809691 1.366333 0 -23.95655 7.147282 -2.675654e-08 
-4.313342 2.169443 1.299459 -21.58989 10.97662 6.196006 
-4.313342 -2.169443 1.299459 -21.58989 -10.97663 6.196006 
-4.809691 -1.366333 0 -23.95655 -7.147282 -2.675654e-08 
-3.468902 0.8031101 3.510232 -17.17263 3.829341 17.76055 
-3.468902 -0.8031101 3.510232 -17.17263 -3.829341 17.76055 
-2.628656 0 4.253254 -13.14328 0 21.26627 
-4.755283 0.8122993 -1.314328 -23.76977 3.557798 -6.880407 
-4.253254 0 -2.628655 -21.57093 0 -12.63704 
-4.755283 -0.8122993 -1.314328 -23.76978 -3.557799 -6.880406 
-4.045085 1.545085 -2.5 -20.22543 7.725424 -12.5 
-4.045085 -1.545085 -2.5 -20.22543 -7.725425 -12.5 
-4.313342 -2.169443 -1.299459 -21.58989 -10.97662 -6.196006 
-4.313342 2.169443 -1.299459 -21.58989 10.97663 -6.196006 
-3.468902 -0.8031101 -3.510232 -17.17263 -3.829341 -17.76055 
-3.468902 0.8031101 -3.510232 -17.17263 3.829341 -17.76055 
-2.628656 0 -4.253254 -13.14328 0 -21.26627 
-0.8122993 -1.314328 4.755283 -3.557798 -6.880407 23.76977 
0 -2.628655 4.253254 0 -12.63704 21.57093 
0.8122993 -1.314328 4.755283 3.557798 -6.880406 23.76977 
0 0 5 0 5.081976e-08 25 
-1.545085 -2.5 4.045085 -7.725423 -12.5 20.22543 
1.545085 -2.5 4.045085 7.725423 -12.5 20.22543 
1.366333 0 4.809691 7.147282 2.675654e-08 23.95655 
2.169443 -1.299459 4.313342 10.97662 -6.196006 21.58989 
-2.169443 -1.299459 4.313342 -10.97663 -6.196006 21.58989 
-1.366333 0 4.809691 -7.147282 2.675654e-08 23.95655 
0.8031101 -3.510232 3.468902 3.829341 -17.76055 17.17263 
-0.8031101 -3.510232 3.468902 -3.829341 -17.76055 17.17263 
0.8122993 1.314328 4.755283 3.557798 6.880407 23.76977 
0 2.628655 4.253254 0 12.63704 21.57093 
-0.8122993 1.314328 4.755283 -3.557798 6.880406 23.76977 
1.545085 2.5 4.045085 7.725423 12.5 20.22543 
-1.545085 2.5 4.045085 -7.725423 12.5 20.22543 
-2.169443 1.299459 4.313342 -10.97662 6.196006 21.58989 
2.169443 1.299459 4.313342 10.97663 6.196006 21.58989 
-0.8031101 3.510232 3.468902 -3.829341 17.76055 17.17263 
0.8031101 3.510232 3.468902 3.829341 17.76055 17.17263 
-0.8122993 1.314328 -4.755283 -3.557798 6.880407 -23.76977 
0 2.628655 -4.253254 0 12.63704 -21.57093 
0.8122993 1.314328 -4.755283 3.557798 6.880406 -23.76977 
0 0 -5 0 -5.081976e-08 -25 
-1.545085 2.5 -4.045085 -7.725423 12.5 -20.22543 
1.545085 2.5 -4.045085 7.725423 12.5 -20.22543 
1.366333 0 -4.809691 7.147282 -2.675654e-08 -23.95655 
2.169443 1.299459 -4.313342 10.97662 6.196006 -21.58989 
-2.169443 1.299459 -4.313342 -10.97663 6.196006 -21.58989 
-1.366333 0 -4.809691 -7.147282 -2.675654e-08 -23.95655 
0.8031101 3.510232 -3.468902 3.829341 17.76055 -17.17263 
-0.8031101 3.510232 -3.468902 -3.829341 17.76055 -17.17263 
0.8122993 -1.314328 -4.755283 3.557798 -6.880407 -23.76977 
0 -2.628655 -4.253254 0 -12.63704 -21.57093 
-0.8122993 -1.314328 -4.755283 -3.557798 -6.880406 -23.76977 
1.545085 -2.5 -4.045085 7.725423 -12.5 -20.22543 
-1.545085 -2.5 -4.045085 -7.725423 -12.5 -20.22543 
-2.169443 -1.299459 -4.313342 -10.97662 -6.196006 -21.58989 
2.169443 -1.299459 -4.313342 10.97663 -6.196006 -21.58989 
-0.8031101 -3.510232 -3.468902 -3.829341 -17.76055 -17.17263 
0.8031101 -3.510232 -3.468902 3.829341 -17.76055 -17.17263 
2.938926 2.126627 3.440955 14.69053 11.13273 16.88937 
3.440955 2.938926 2.126627 16.88937 14.69053 11.13273 
2.126627 3.440955 2.938926 11.13273 16.88937 14.69053 
-3.440955 2.938926 2.126627 -16.88937 14.69053 11.13273 
-2.938926 2.126627 3.440955 -14.69053 11.13273 16.88937 
-2.126627 3.440955 2.938926 -11.13273 16.88937 14.69053 
3.440955 2.938926 -2.126627 16.88937 14.69053 -11.13273 
2.938926 2.126627 -3.440955 14.69053 11.13273 -16.88937 
2.126627 3.440955 -2.938926 11.13273 16.88937 -14.69053 
-2.938926 2.126627 -3.440955 -14.69053 11.13273 -16.88937 
-3.440955 2.938926 -2.126627 -16.88937 14.69053 -11.13273 
-2.126627 3.440955 -2.938926 -11.13273 16.88937 -14.69053 
3.440955 -2.938926 2.126627 16.88937 -14.69053 11.13273 
2.938926 -2.126627 3.440955 14.69053 -11.13273 16.88937 
2.126627 -3.440955 2.938926 11.13273 -16.88937 14.69053 
-2.938926 -2.126627 3.440955 -14.69053 -11.13273 16.88937 
-3.440955 -2.938926 2.126627 -16.88937 -14.69053 11.13273 
-2.126627 -3.440955 2.938926 -11.13273 -16.88937 14.69053 
2.938926 -2.126627 -3.440955 14.69053 -11.13273 -16.88937 
3.440955 -2.938926 -2.126627 16.88937 -14.69053 -11.13273 
2.126627 -3.440955 -2.938926 11.13273 -16.88937 -14.69053 
-3.440955 -2.938926 -2.126627 -16.88937 -14.69053 -11.13273 
-2.938926 -2.126627 -3.440955 -14.69053 -11.13273 -16.88937 
-2.126627 -3.440955 -2.938926 -11.13273 -16.88937 -14.69053 
3 0 1 2 
3 3 0 2 
3 4 1 0 
3 5 2 1 
3 6 2 7 
3 8 6 7 
3 3 2 6 
3 5 7 2 
3 9 0 10 
3 11 9 10 
3 4 0 9 
3 3 10 0 
3 12 1 13 
3 14 12 13 
3 5 1 12 
3 4 13 1 
3 15 16 17 
3 3 15 17 
3 18 16 15 
3 19 17 16 
3 10 17 20 
3 11 10 20 
3 3 17 10 
3 19 20 17 
3 21 15 6 
3 8 21 6 
3 18 15 21 
3 3 6 15 
3 22 16 23 
3 24 22 23 
3 19 16 22 
3 18 23 16 
3 25 26 27 
3 28 25 27 
3 29 26 25 
3 30 27 26 
3 31 27 32 
3 33 31 32 
3 28 27 31 
3 30 32 27 
3 34 25 35 
3 36 34 35 
3 29 25 34 
3 28 35 25 
3 37 26 38 
3 39 37 38 
3 30 26 37 
3 29 38 26 
3 40 41 42 
3 28 40 42 
3 43 41 40 
3 44 42 41 
3 35 42 45 
3 36 35 45 
3 28 42 35 
3 44 45 42 
3 46 40 31 
3 33 46 31 
3 43 40 46 
3 28 31 40 
3 47 41 48 
3 49 47 48 
3 44 41 47 
3 43 48 41 
3 50 51 52 
3 53 50 52 
3 54 51 50 
3 55 52 51 
3 56 52 57 
3 14 56 57 
3 53 52 56 
3 55 57 52 
3 58 50 59 
3 39 58 59 
3 54 50 58 
3 53 59 50 
3 60 51 61 
3 62 60 61 
3 55 51 60 
3 54 61 51 
3 63 64 65 
3 53 63 65 
3 66 64 63 
3 67 65 64 
3 59 65 68 
3 39 59 68 
3 53 65 59 
3 67 68 65 
3 69 63 56 
3 14 69 56 
3 66 63 69 
3 53 56 63 
3 70 64 71 
3 72 70 71 
3 67 64 70 
3 66 71 64 
3 73 74 75 
3 76 73 75 
3 77 74 73 
3 78 75 74 
3 79 75 80 
3 24 79 80 
3 76 75 79 
3 78 80 75 
3 81 73 82 
3 49 81 82 
3 77 73 81 
3 76 82 73 
3 83 74 84 
3 85 83 84 
3 78 74 83 
3 77 84 74 
3 86 87 88 
3 76 86 88 
3 89 87 86 
3 90 88 87 
3 82 88 91 
3 49 82 91 
3 76 88 82 
3 90 91 88 
3 92 86 79 
3 24 92 79 
3 89 86 92 
3 76 79 86 
3 93 87 94 
3 95 93 94 
3 90 87 93 
3 89 94 87 
3 96 97 98 
3 99 96 98 
3 100 97 96 
3 101 98 97 
3 102 98 103 
3 72 102 103 
3 99 98 102 
3 101 103 98 
3 104 96 105 
3 85 104 105 
3 100 96 104 
3 99 105 96 
3 106 97 107 
3 33 106 107 
3 101 97 106 
3 100 107 97 
3 108 109 110 
3 99 108 110 
3 111 109 108 
3 112 110 109 
3 105 110 113 
3 85 105 113 
3 99 110 105 
3 112 113 110 
3 114 108 102 
3 72 114 102 
3 111 108 114 
3 99 102 108 
3 115 109 116 
3 11 115 116 
3 112 109 115 
3 111 116 109 
3 117 118 119 
3 120 117 119 
3 121 118 117 
3 122 119 118 
3 123 119 124 
3 62 123 124 
3 120 119 123 
3 122 124 119 
3 125 117 126 
3 95 125 126 
3 121 117 125 
3 120 126 117 
3 127 118 128 
3 8 127 128 
3 122 118 127 
3 121 128 118 
3 129 130 131 
3 120 129 131 
3 132 130 129 
3 133 131 130 
3 126 131 134 
3 95 126 134 
3 120 131 126 
3 133 134 131 
3 135 129 123 
3 62 135 123 
3 132 129 135 
3 120 123 129 
3 136 130 137 
3 36 136 137 
3 133 130 136 
3 132 137 130 
3 138 139 140 
3 111 138 140 
3 66 139 138 
3 4 140 139 
3 116 140 9 
3 11 116 9 
3 111 140 116 
3 4 9 140 
3 71 138 114 
3 72 71 114 
3 66 138 71 
3 111 114 138 
3 13 139 69 
3 14 13 69 
3 4 139 13 
3 66 69 139 
3 141 142 143 
3 19 141 143 
3 78 142 141 
3 112 143 142 
3 20 143 115 
3 11 20 115 
3 19 143 20 
3 112 115 143 
3 80 141 22 
3 24 80 22 
3 78 141 80 
3 19 22 141 
3 113 142 83 
3 85 113 83 
3 112 142 113 
3 78 83 142 
3 144 145 146 
3 5 144 146 
3 55 145 144 
3 122 146 145 
3 7 146 127 
3 8 7 127 
3 5 146 7 
3 122 127 146 
3 57 144 12 
3 14 57 12 
3 55 144 57 
3 5 12 144 
3 124 145 60 
3 62 124 60 
3 122 145 124 
3 55 60 145 
3 147 148 149 
3 121 147 149 
3 89 148 147 
3 18 149 148 
3 128 149 21 
3 8 128 21 
3 121 149 128 
3 18 21 149 
3 94 147 125 
3 95 94 125 
3 89 147 94 
3 121 125 147 
3 23 148 92 
3 24 23 92 
3 18 148 23 
3 89 92 148 
3 150 151 152 
3 30 150 152 
3 67 151 150 
3 101 152 151 
3 32 152 106 
3 33 32 106 
3 30 152 32 
3 101 106 152 
3 68 150 37 
3 39 68 37 
3 67 150 68 
3 30 37 150 
3 103 151 70 
3 72 103 70 
3 101 151 103 
3 67 70 151 
3 153 154 155 
3 100 153 155 
3 77 154 153 
3 43 155 154 
3 107 155 46 
3 33 107 46 
3 100 155 107 
3 43 46 155 
3 84 153 104 
3 85 84 104 
3 77 153 84 
3 100 104 153 
3 48 154 81 
3 49 48 81 
3 43 154 48 
3 77 81 154 
3 156 157 158 
3 132 156 158 
3 54 157 156 
3 29 158 157 
3 137 158 34 
3 36 137 34 
3 132 158 137 
3 29 34 158 
3 61 156 135 
3 62 61 135 
3 54 156 61 
3 132 135 156 
3 38 157 58 
3 39 38 58 
3 29 157 38 
3 54 58 157 
3 159 160 161 
3 44 159 161 
3 90 160 159 
3 133 161 160 
3 45 161 136 
3 36 45 136 
3 44 161 45 
3 133 136 161 
3 91 159 47 
3 49 91 47 
3 90 159 91 
3 44 47 159 
3 134 160 93 
3 95 134 93 
3 133 160 134 
3 90 93 160 
